<svg version="1.1"
  xmlns="http://www.w3.org/2000/svg" viewBox="0 0 91.5 91.5">
  <g transform="translate(10 9.999999999999972) rotate(0 35.75 35.750000000000014)">
    <path d="M35.75000000000001 0 C42.6798602715634 -0.4711578946713419, 51.86553953831994 3.0152642419579214, 57.633769278621244 7.480526319719473 C63.401999018922545 11.945788397481024, 68.5314608544806 19.72972022697015, 70.35937844180782 26.79157246656931 C72.18729602913504 33.85342470616847, 71.47863639605129 43.148518840872974, 68.60127480258461 49.851639757314416 C65.72391320911794 56.55476067375586, 59.47369977379829 63.4711040328966, 53.09520888100778 67.01029796521796 C46.71671798821727 70.54949189753933, 37.54060871467699 72.19265715052781, 30.330329445841542 71.08680335124258 C23.120050177006092 69.98094955195735, 14.858164054522955 65.6632868569682, 9.833533267995087 60.375175169506576 C4.808902481467217 55.08706348204496, 0.9187643542235957 46.61547574422709, 0.18254472667432253 39.35813322647288 C-0.5536749008749506 32.10079070871867, 1.555922695691026 23.020561007376106, 5.416215502699448 16.831120062981302 C9.27650830970787 10.641679118586499, 18.28867081917476 5.026674237267603, 23.344301568724852 2.221487560104052 C28.399932318274942 -0.5836991170594987, 33.682383594787474 0.2510812600173414, 35.75 0 C37.817616405212526 -0.2510812600173414, 35.75000000000001 0.11916666666666964, 35.75000000000001 0.7150000000000034 M35.75000000000001 0 C42.6798602715634 -0.4711578946713419, 51.86553953831994 3.0152642419579214, 57.633769278621244 7.480526319719473 C63.401999018922545 11.945788397481024, 68.5314608544806 19.72972022697015, 70.35937844180782 26.79157246656931 C72.18729602913504 33.85342470616847, 71.47863639605129 43.148518840872974, 68.60127480258461 49.851639757314416 C65.72391320911794 56.55476067375586, 59.47369977379829 63.4711040328966, 53.09520888100778 67.01029796521796 C46.71671798821727 70.54949189753933, 37.54060871467699 72.19265715052781, 30.330329445841542 71.08680335124258 C23.120050177006092 69.98094955195735, 14.858164054522955 65.6632868569682, 9.833533267995087 60.375175169506576 C4.808902481467217 55.08706348204496, 0.9187643542235957 46.61547574422709, 0.18254472667432253 39.35813322647288 C-0.5536749008749506 32.10079070871867, 1.555922695691026 23.020561007376106, 5.416215502699448 16.831120062981302 C9.27650830970787 10.641679118586499, 18.28867081917476 5.026674237267603, 23.344301568724852 2.221487560104052 C28.399932318274942 -0.5836991170594987, 33.682383594787474 0.2510812600173414, 35.75 0 C37.817616405212526 -0.2510812600173414, 35.75000000000001 0.11916666666666964, 35.75000000000001 0.7150000000000034" stroke="#1864ab" stroke-width="1" fill="none"></path>
  </g>
  <g transform="translate(24.712765957447573 24.712765957447004) rotate(0 21.297872340425556 21.297872340425528)">
    <path d="M21.29787234042553 0 C25.63304168391074 -0.27191861261067274, 31.492162492950833 2.049499647063884, 34.98788079353672 4.9827555837851705 C38.4835990941226 7.916011520506457, 41.47976713723164 13.10552679918553, 42.27218214394085 17.599535620327718 C43.064597150650066 22.093544441469906, 42.02403890931051 27.994843477832298, 39.74237083379198 31.946808510638295 C37.46070275827345 35.89877354344429, 32.87030699812477 39.750572932742806, 28.58217369082967 41.311325817163706 C24.294040383534572 42.872078701584606, 18.301704297316494 42.872078701584606, 14.013570990021396 41.311325817163706 C9.725437682726298 39.750572932742806, 5.135041922577614 35.89877354344429, 2.853373847059082 31.946808510638295 C0.5717057715405507 27.994843477832298, -0.4688524697990001 22.093544441469902, 0.32356253691020953 17.599535620327714 C1.1159775436194193 13.105526799185526, 4.112145586728452 7.91601152050646, 7.607863887314339 4.982755583785174 C11.103582187900226 2.049499647063888, 19.016204264906996 0.7594663561627772, 21.297872340425528 0 C23.57954041594406 -0.7594663561627772, 21.29787234042553 0.07099290780141843, 21.29787234042553 0.42595744680851055" stroke="none" stroke-width="0" fill="#228be6"></path>
    <path d="M21.29787234042553 0 C25.63304168391074 -0.27191861261067274, 31.492162492950833 2.049499647063884, 34.98788079353672 4.9827555837851705 C38.4835990941226 7.916011520506457, 41.47976713723164 13.10552679918553, 42.27218214394085 17.599535620327718 C43.064597150650066 22.093544441469906, 42.02403890931051 27.994843477832298, 39.74237083379198 31.946808510638295 C37.46070275827345 35.89877354344429, 32.87030699812477 39.750572932742806, 28.58217369082967 41.311325817163706 C24.294040383534572 42.872078701584606, 18.301704297316494 42.872078701584606, 14.013570990021396 41.311325817163706 C9.725437682726298 39.750572932742806, 5.135041922577614 35.89877354344429, 2.853373847059082 31.946808510638295 C0.5717057715405507 27.994843477832298, -0.4688524697990001 22.093544441469902, 0.32356253691020953 17.599535620327714 C1.1159775436194193 13.105526799185526, 4.112145586728452 7.91601152050646, 7.607863887314339 4.982755583785174 C11.103582187900226 2.049499647063888, 19.016204264906996 0.7594663561627772, 21.297872340425528 0 C23.57954041594406 -0.7594663561627772, 21.29787234042553 0.07099290780141843, 21.29787234042553 0.42595744680851055" stroke="#1864ab" stroke-width="1.5" fill="none" stroke-dasharray="3 6"></path>
  </g>
  <g transform="translate(36.882978723404676 36.882978723403994) rotate(0 9.888297872340445 9.127659574468083)">
    <path d="M9.888297872340424 0 C11.901055067529985 -0.11653654826171689, 14.621361157441457 0.878356991598807, 16.24437322557062 2.135466678765072 C17.86738529369978 3.392576365931337, 19.25846331371469 5.616654342508081, 19.626370281115392 7.542658122997588 C19.994277248516095 9.468661903487096, 19.511160922179876 11.99779006192812, 18.451815029974846 13.691489361702118 C17.392469137769815 15.385188661476116, 15.261213963415068 17.035959828318337, 13.270294927885201 17.70485392164158 C11.279375892355334 18.37374801496482, 8.497219852325514 18.37374801496482, 6.5063008167956475 17.70485392164158 C4.515381781265781 17.035959828318337, 2.3841266069110336 15.385188661476116, 1.3247807147060016 13.691489361702118 C0.2654348225009693 11.99779006192812, -0.2176815038352511 9.468661903487096, 0.1502254635654534 7.5426581229975875 C0.5181324309661579 5.61665434250808, 1.9092104509810672 3.3925763659313373, 3.5322225191102286 2.1354666787650727 C5.15523458723939 0.8783569915988081, 8.82895198013539 0.3254855812126185, 9.888297872340422 0 C10.947643764545454 -0.3254855812126185, 9.888297872340424 0.03042553191489361, 9.888297872340424 0.18255319148936167" stroke="none" stroke-width="0" fill="#ffffff"></path>
    <path d="M9.888297872340424 0 C11.901055067529985 -0.11653654826171689, 14.621361157441457 0.878356991598807, 16.24437322557062 2.135466678765072 C17.86738529369978 3.392576365931337, 19.25846331371469 5.616654342508081, 19.626370281115392 7.542658122997588 C19.994277248516095 9.468661903487096, 19.511160922179876 11.99779006192812, 18.451815029974846 13.691489361702118 C17.392469137769815 15.385188661476116, 15.261213963415068 17.035959828318337, 13.270294927885201 17.70485392164158 C11.279375892355334 18.37374801496482, 8.497219852325514 18.37374801496482, 6.5063008167956475 17.70485392164158 C4.515381781265781 17.035959828318337, 2.3841266069110336 15.385188661476116, 1.3247807147060016 13.691489361702118 C0.2654348225009693 11.99779006192812, -0.2176815038352511 9.468661903487096, 0.1502254635654534 7.5426581229975875 C0.5181324309661579 5.61665434250808, 1.9092104509810672 3.3925763659313373, 3.5322225191102286 2.1354666787650727 C5.15523458723939 0.8783569915988081, 8.82895198013539 0.3254855812126185, 9.888297872340422 0 C10.947643764545454 -0.3254855812126185, 9.888297872340424 0.03042553191489361, 9.888297872340424 0.18255319148936167" stroke="#1864ab" stroke-width="1.5" fill="none" stroke-dasharray="3 6"></path>
  </g>
  <g transform="translate(43.12021276595749 42.511702127659476) rotate(0 3.422872340425556 3.4228723404255277)">
    <path d="M3.4228723404255326 0 C4.119595984914227 -0.04370120559814383, 5.061240400652813 0.3293838718495529, 5.623052270389831 0.8008000045369026 C6.184864140126849 1.2722161372242522, 6.666391147055088 2.106245378440532, 6.793743558847639 2.828496796124098 C6.921095970640191 3.550748213807664, 6.75386339613919 4.499171273223049, 6.3871667411451405 5.134308510638299 C6.020470086151091 5.769445748053548, 5.28272791041291 6.38848493561938, 4.593563628883341 6.639320220615597 C3.9043993473537713 6.890155505611813, 2.941345333497294 6.890155505611814, 2.2521810519677246 6.6393202206155975 C1.5630167704381552 6.388484935619381, 0.825274594699974 5.769445748053549, 0.4585779397059242 5.134308510638299 C0.09188128471187446 4.499171273223048, -0.07535128978912531 3.5507482138076636, 0.052001122003426214 2.8284967961240977 C0.17935353379597774 2.1062453784405317, 0.6608805407242156 1.2722161372242526, 1.2226924104612333 0.800800004536903 C1.784504280198251 0.3293838718495534, 3.0561756854314823 0.12205709295473206, 3.422872340425532 0 C3.789568995419582 -0.12205709295473206, 3.4228723404255326 0.011409574468085104, 3.4228723404255326 0.06845744680851062" stroke="none" stroke-width="0" fill="#868e96"></path>
    <path d="M3.4228723404255326 0 C4.119595984914227 -0.04370120559814383, 5.061240400652813 0.3293838718495529, 5.623052270389831 0.8008000045369026 C6.184864140126849 1.2722161372242522, 6.666391147055088 2.106245378440532, 6.793743558847639 2.828496796124098 C6.921095970640191 3.550748213807664, 6.75386339613919 4.499171273223049, 6.3871667411451405 5.134308510638299 C6.020470086151091 5.769445748053548, 5.28272791041291 6.38848493561938, 4.593563628883341 6.639320220615597 C3.9043993473537713 6.890155505611813, 2.941345333497294 6.890155505611814, 2.2521810519677246 6.6393202206155975 C1.5630167704381552 6.388484935619381, 0.825274594699974 5.769445748053549, 0.4585779397059242 5.134308510638299 C0.09188128471187446 4.499171273223048, -0.07535128978912531 3.5507482138076636, 0.052001122003426214 2.8284967961240977 C0.17935353379597774 2.1062453784405317, 0.6608805407242156 1.2722161372242526, 1.2226924104612333 0.800800004536903 C1.784504280198251 0.3293838718495534, 3.0561756854314823 0.12205709295473206, 3.422872340425532 0 C3.789568995419582 -0.12205709295473206, 3.4228723404255326 0.011409574468085104, 3.4228723404255326 0.06845744680851062" stroke="transparent" stroke-width="1.5" fill="none" stroke-dasharray="3 6"></path>
  </g>
</svg>